# xmcd
#
# Track frame offsets:
#	150
#	14401
#	33675
#	48380
#	61936
#	73125
#	86048
#	101048
#	117757
#	132235
#	146408
#	159030
#	171663
#	188319
#	200690
#	220322
#	233895
#	248068
#
# Disc length: 3508 seconds
#
# Revision: 1
# Processed by: cddbd v1.5.1PL2 Copyright (c) Steve Scherf et al.
# Submitted via: audiograbber 1.83.01
#
DISCID=020db212
DTITLE=Diverse - Traeume kann man nicht verbieten Platte 1
DYEAR=1900
DGENRE=
TTITLE0=Tr‰ume kann man nicht verbieten
TTITLE1=So verliebt
TTITLE2=Ballade poer Adeline
TTITLE3=Liebe ist nur ein Wort
TTITLE4=Zarter bunter Schmetterling
TTITLE5=Schlieﬂ deine Augen und Tr‰ume
TTITLE6=Behalt mich lieb Charlie
TTITLE7=Ti amo
TTITLE8=Marleen
TTITLE9=Du du du schlieﬂ deine Augen zu
TTITLE10=Norwegian Wedding Dance
TTITLE11=Komm in den Park von Sanssouci
TTITLE12=Veruschka
TTITLE13=Die Antwort kennt nur der Wind
TTITLE14=Ich bin verliebt in meine eigene Frau
TTITLE15=Parlez moi d amour
TTITLE16=Ungek¸ﬂt sollst du nicht schlafen gehn
TTITLE17=‹ber den Wolken
EXTD=
EXTT0=
EXTT1=
EXTT2=
EXTT3=
EXTT4=
EXTT5=
EXTT6=
EXTT7=
EXTT8=
EXTT9=
EXTT10=
EXTT11=
EXTT12=
EXTT13=
EXTT14=
EXTT15=
EXTT16=
EXTT17=
PLAYORDER=
